<svg xmlns="http://www.w3.org/2000/svg" viewBox="0 0 1284.3375 1284" width="1284.3375" height="1284" style="--bg:#1a1b26;--fg:#a9b1d6;--line:#3d59a1;--accent:#7aa2f7;--muted:#565f89;background:var(--bg)">
<style>
  @import url('https://fonts.googleapis.com/css2?family=Inter:wght@400;500;600;700&amp;display=swap');
  text { font-family: 'Inter', system-ui, sans-serif; }
  svg {
    /* Derived from --bg and --fg (overridable via --line, --accent, etc.) */
    --_text:          var(--fg);
    --_text-sec:      var(--muted, color-mix(in srgb, var(--fg) 60%, var(--bg)));
    --_text-muted:    var(--muted, color-mix(in srgb, var(--fg) 40%, var(--bg)));
    --_text-faint:    color-mix(in srgb, var(--fg) 25%, var(--bg));
    --_line:          var(--line, color-mix(in srgb, var(--fg) 30%, var(--bg)));
    --_arrow:         var(--accent, color-mix(in srgb, var(--fg) 50%, var(--bg)));
    --_node-fill:     var(--surface, color-mix(in srgb, var(--fg) 3%, var(--bg)));
    --_node-stroke:   var(--border, color-mix(in srgb, var(--fg) 20%, var(--bg)));
    --_group-fill:    var(--bg);
    --_group-hdr:     color-mix(in srgb, var(--fg) 5%, var(--bg));
    --_inner-stroke:  color-mix(in srgb, var(--fg) 12%, var(--bg));
    --_key-badge:     color-mix(in srgb, var(--fg) 10%, var(--bg));
  }
</style>
<defs>
  <marker id="arrowhead" markerWidth="8" markerHeight="4.8" refX="8" refY="2.4" orient="auto">
    <polygon points="0 0, 8 2.4, 0 4.8" fill="var(--_arrow)" />
  </marker>
  <marker id="arrowhead-start" markerWidth="8" markerHeight="4.8" refX="0" refY="2.4" orient="auto-start-reverse">
    <polygon points="8 0, 0 2.4, 8 4.8" fill="var(--_arrow)" />
  </marker>
</defs>
<rect x="40" y="40" width="515.7" height="112" rx="0" ry="0" fill="var(--_group-fill)" stroke="var(--_node-stroke)" stroke-width="1" />
<rect x="40" y="40" width="515.7" height="28" rx="0" ry="0" fill="var(--_group-hdr)" stroke="var(--_node-stroke)" stroke-width="1" />
<text x="52" y="54" dy="0.35em" font-size="12" font-weight="600" fill="var(--_text-sec)">&quot;应用层&quot;</text>
<rect x="65.8125" y="196" width="454.01250000000005" height="268" rx="0" ry="0" fill="var(--_group-fill)" stroke="var(--_node-stroke)" stroke-width="1" />
<rect x="65.8125" y="196" width="454.01250000000005" height="28" rx="0" ry="0" fill="var(--_group-hdr)" stroke="var(--_node-stroke)" stroke-width="1" />
<text x="77.8125" y="210" dy="0.35em" font-size="12" font-weight="600" fill="var(--_text-sec)">&quot;服务层&quot;</text>
<rect x="539.8250000000003" y="352" width="342.7874999999999" height="268" rx="0" ry="0" fill="var(--_group-fill)" stroke="var(--_node-stroke)" stroke-width="1" />
<rect x="539.8250000000003" y="352" width="342.7874999999999" height="28" rx="0" ry="0" fill="var(--_group-hdr)" stroke="var(--_node-stroke)" stroke-width="1" />
<text x="551.8250000000003" y="366" dy="0.35em" font-size="12" font-weight="600" fill="var(--_text-sec)">&quot;业务层&quot;</text>
<rect x="902.6125000000002" y="508" width="140.34999999999997" height="268" rx="0" ry="0" fill="var(--_group-fill)" stroke="var(--_node-stroke)" stroke-width="1" />
<rect x="902.6125000000002" y="508" width="140.34999999999997" height="28" rx="0" ry="0" fill="var(--_group-hdr)" stroke="var(--_node-stroke)" stroke-width="1" />
<text x="914.6125000000002" y="522" dy="0.35em" font-size="12" font-weight="600" fill="var(--_text-sec)">&quot;基础层&quot;</text>
<rect x="792.9875000000001" y="820" width="451.3500000000001" height="424" rx="0" ry="0" fill="var(--_group-fill)" stroke="var(--_node-stroke)" stroke-width="1" />
<rect x="792.9875000000001" y="820" width="451.3500000000001" height="28" rx="0" ry="0" fill="var(--_group-hdr)" stroke="var(--_node-stroke)" stroke-width="1" />
<text x="804.9875000000001" y="834" dy="0.35em" font-size="12" font-weight="600" fill="var(--_text-sec)">&quot;底座层&quot;</text>
<polyline points="131.625,132 131.625,270 256.0375,270" fill="none" stroke="var(--_line)" stroke-width="0.75" marker-end="url(#arrowhead)" />
<polyline points="273.42499999999995,132 273.42499999999995,270 256.0375,270" fill="none" stroke="var(--_line)" stroke-width="0.75" marker-end="url(#arrowhead)" />
<polyline points="393.7750000000001,132 393.7750000000001,270 359.5375,270" fill="none" stroke="var(--_line)" stroke-width="0.75" marker-end="url(#arrowhead)" />
<polyline points="499.82500000000005,132 499.82500000000005,270 359.5375,270" fill="none" stroke="var(--_line)" stroke-width="0.75" marker-end="url(#arrowhead)" />
<polyline points="307.7875,288 307.7875,308 446.79999999999995,308 446.79999999999995,426 696.9375000000001,426" fill="none" stroke="var(--_line)" stroke-width="0.75" marker-end="url(#arrowhead)" />
<polyline points="734.3875000000002,444 734.3875000000002,464 842.8875000000002,464 842.8875000000002,582 924.6125000000002,582" fill="none" stroke="var(--_line)" stroke-width="0.75" marker-end="url(#arrowhead)" />
<polyline points="972.7875000000001,600 972.7875000000001,720" fill="none" stroke="var(--_line)" stroke-width="0.75" marker-end="url(#arrowhead)" />
<polyline points="972.7875000000001,756 972.7875000000001,876" fill="none" stroke="var(--_line)" stroke-width="0.75" marker-end="url(#arrowhead)" />
<polyline points="972.7875000000001,912 972.7875000000001,1050 970.4875000000001,1050" fill="none" stroke="var(--_line)" stroke-width="0.75" marker-end="url(#arrowhead)" />
<polyline points="1174.1625000000001,912 1174.1625000000001,1050 1045.3875,1050" fill="none" stroke="var(--_line)" stroke-width="0.75" stroke-dasharray="4 4" marker-end="url(#arrowhead)" />
<polyline points="307.7875,288 307.7875,308 125.26250000000005,308 125.26250000000005,408" fill="none" stroke="var(--_line)" stroke-width="0.75" />
<polyline points="307.7875,288 307.7875,308 296.0625,308 296.0625,408" fill="none" stroke="var(--_line)" stroke-width="0.75" />
<polyline points="734.3875000000002,444 734.3875000000002,464 599.2750000000002,464 599.2750000000002,564" fill="none" stroke="var(--_line)" stroke-width="0.75" />
<polyline points="734.3875000000002,444 734.3875000000002,464 698.1750000000002,464 698.1750000000002,564" fill="none" stroke="var(--_line)" stroke-width="0.75" />
<polyline points="734.3875000000002,444 734.3875000000002,464 807.8000000000002,464 807.8000000000002,564" fill="none" stroke="var(--_line)" stroke-width="0.75" />
<polyline points="1007.9375000000001,1068 1007.9375000000001,1088 856.0125,1088 856.0125,1188" fill="none" stroke="var(--_line)" stroke-width="0.75" />
<polyline points="1007.9375000000001,1068 1007.9375000000001,1088 958.4875000000002,1088 958.4875000000002,1188" fill="none" stroke="var(--_line)" stroke-width="0.75" />
<polyline points="1007.9375000000001,1068 1007.9375000000001,1088 1057.3875000000003,1088 1057.3875000000003,1188" fill="none" stroke="var(--_line)" stroke-width="0.75" />
<polyline points="1007.9375000000001,1068 1007.9375000000001,1088 1170.5875,1088 1170.5875,1188" fill="none" stroke="var(--_line)" stroke-width="0.75" />
<rect x="62" y="96" width="139.25" height="36" rx="0" ry="0" fill="var(--_node-fill)" stroke="var(--_node-stroke)" stroke-width="0.75" />
<rect x="225.24999999999994" y="96" width="96.35000000000001" height="36" rx="0" ry="0" fill="var(--_node-fill)" stroke="var(--_node-stroke)" stroke-width="0.75" />
<rect x="345.6000000000001" y="96" width="96.35000000000001" height="36" rx="0" ry="0" fill="var(--_node-fill)" stroke="var(--_node-stroke)" stroke-width="0.75" />
<rect x="465.95000000000005" y="96" width="67.75" height="36" rx="0" ry="0" fill="var(--_node-fill)" stroke="var(--_node-stroke)" stroke-width="0.75" />
<rect x="256.0375" y="252" width="103.5" height="36" rx="0" ry="0" fill="var(--_node-fill)" stroke="var(--_node-stroke)" stroke-width="0.75" />
<rect x="87.81250000000004" y="408" width="74.9" height="36" rx="0" ry="0" fill="var(--_node-fill)" stroke="var(--_node-stroke)" stroke-width="0.75" />
<rect x="258.6125" y="408" width="74.9" height="36" rx="0" ry="0" fill="var(--_node-fill)" stroke="var(--_node-stroke)" stroke-width="0.75" />
<rect x="696.9375000000001" y="408" width="74.9" height="36" rx="0" ry="0" fill="var(--_node-fill)" stroke="var(--_node-stroke)" stroke-width="0.75" />
<rect x="561.8250000000002" y="564" width="74.9" height="36" rx="0" ry="0" fill="var(--_node-fill)" stroke="var(--_node-stroke)" stroke-width="0.75" />
<rect x="660.7250000000001" y="564" width="74.9" height="36" rx="0" ry="0" fill="var(--_node-fill)" stroke="var(--_node-stroke)" stroke-width="0.75" />
<rect x="759.6250000000002" y="564" width="96.35000000000001" height="36" rx="0" ry="0" fill="#ffe" stroke="#f90" stroke-width="0.75" />
<rect x="928.1875000000001" y="720" width="89.2" height="36" rx="0" ry="0" fill="var(--_node-fill)" stroke="var(--_node-stroke)" stroke-width="0.75" />
<rect x="924.6125000000002" y="564" width="96.35000000000001" height="36" rx="0" ry="0" fill="var(--_node-fill)" stroke="var(--_node-stroke)" stroke-width="0.75" />
<rect x="1129.5625000000002" y="876" width="89.2" height="36" rx="0" ry="0" fill="var(--_node-fill)" stroke="var(--_node-stroke)" stroke-width="0.75" />
<rect x="924.6125000000002" y="876" width="96.35000000000001" height="36" rx="0" ry="0" fill="var(--_node-fill)" stroke="var(--_node-stroke)" stroke-width="0.75" />
<rect x="970.4875000000001" y="1032" width="74.9" height="36" rx="0" ry="0" fill="var(--_node-fill)" stroke="var(--_node-stroke)" stroke-width="0.75" />
<rect x="814.9875000000001" y="1188" width="82.05000000000001" height="36" rx="0" ry="0" fill="var(--_node-fill)" stroke="var(--_node-stroke)" stroke-width="0.75" />
<rect x="921.0375000000001" y="1188" width="74.9" height="36" rx="0" ry="0" fill="var(--_node-fill)" stroke="var(--_node-stroke)" stroke-width="0.75" />
<rect x="1019.9375000000002" y="1188" width="74.9" height="36" rx="0" ry="0" fill="var(--_node-fill)" stroke="var(--_node-stroke)" stroke-width="0.75" />
<rect x="1118.8375" y="1188" width="103.5" height="36" rx="0" ry="0" fill="#ffe" stroke="#f90" stroke-width="0.75" />
<text x="131.625" y="114" text-anchor="middle" dy="0.35em" font-size="13" font-weight="500" fill="var(--_text)">&quot;Gen-FVS Agent&quot;</text>
<text x="273.42499999999995" y="114" text-anchor="middle" dy="0.35em" font-size="13" font-weight="500" fill="var(--_text)">&quot;Agent-2&quot;</text>
<text x="393.7750000000001" y="114" text-anchor="middle" dy="0.35em" font-size="13" font-weight="500" fill="var(--_text)">&quot;Agent-3&quot;</text>
<text x="499.82500000000005" y="114" text-anchor="middle" dy="0.35em" font-size="13" font-weight="500" fill="var(--_text)">&quot;...&quot;</text>
<text x="307.7875" y="270" text-anchor="middle" dy="0.35em" font-size="13" font-weight="500" fill="var(--_text)">&quot;Agent路由层&quot;</text>
<text x="125.26250000000005" y="426" text-anchor="middle" dy="0.35em" font-size="13" font-weight="500" fill="var(--_text)">&quot;用户选择&quot;</text>
<text x="296.0625" y="426" text-anchor="middle" dy="0.35em" font-size="13" font-weight="500" fill="var(--_text)">&quot;系统推荐&quot;</text>
<text x="734.3875000000002" y="426" text-anchor="middle" dy="0.35em" font-size="13" font-weight="500" fill="var(--_text)">&quot;积分引擎&quot;</text>
<text x="599.2750000000002" y="582" text-anchor="middle" dy="0.35em" font-size="13" font-weight="500" fill="var(--_text)">&quot;获取规则&quot;</text>
<text x="698.1750000000002" y="582" text-anchor="middle" dy="0.35em" font-size="13" font-weight="500" fill="var(--_text)">&quot;消耗规则&quot;</text>
<text x="807.8000000000002" y="582" text-anchor="middle" dy="0.35em" font-size="13" font-weight="500" fill="var(--_text)">&quot;差异化定价预留&quot;</text>
<text x="972.7875000000001" y="738" text-anchor="middle" dy="0.35em" font-size="13" font-weight="500" fill="var(--_text)">&quot;产品基座权限&quot;</text>
<text x="972.7875000000001" y="582" text-anchor="middle" dy="0.35em" font-size="13" font-weight="500" fill="var(--_text)">&quot;模板/套件权限&quot;</text>
<text x="1174.1625000000001" y="894" text-anchor="middle" dy="0.35em" font-size="13" font-weight="500" fill="var(--_text)">&quot;底层框架迁移&quot;</text>
<text x="972.7875000000001" y="894" text-anchor="middle" dy="0.35em" font-size="13" font-weight="500" fill="var(--_text)">&quot;用户/账户体系&quot;</text>
<text x="1007.9375000000001" y="1050" text-anchor="middle" dy="0.35em" font-size="13" font-weight="500" fill="var(--_text)">&quot;数据模型&quot;</text>
<text x="856.0125" y="1206" text-anchor="middle" dy="0.35em" font-size="13" font-weight="500" fill="var(--_text)">&quot;模板元数据&quot;</text>
<text x="958.4875000000002" y="1206" text-anchor="middle" dy="0.35em" font-size="13" font-weight="500" fill="var(--_text)">&quot;套件关系&quot;</text>
<text x="1057.3875000000003" y="1206" text-anchor="middle" dy="0.35em" font-size="13" font-weight="500" fill="var(--_text)">&quot;积分账户&quot;</text>
<text x="1170.5875" y="1206" text-anchor="middle" dy="0.35em" font-size="13" font-weight="500" fill="var(--_text)">&quot;Agent元数据&quot;</text>
</svg>